<svg version="1.1" id="Layer_1" xmlns="http://www.w3.org/2000/svg" xmlns:xlink="http://www.w3.org/1999/xlink" x="0px" y="0px"
	 width="100%" viewBox="0 0 512 512" enable-background="new 0 0 512 512" xml:space="preserve">
<path fill="#000000" opacity="1.000000" stroke="none" 
	d="
M1.000000,247.000000 
	C1.000000,165.035187 1.000000,83.070358 1.000000,1.105542 
	C1.131414,1.070362 1.262828,1.004343 1.394243,1.004340 
	C171.821091,0.999976 342.247955,1.000000 513.000000,1.000000 
	C513.000000,85.355064 513.000000,169.710556 512.730286,254.851227 
	C509.655060,252.386856 506.849548,249.137299 503.915649,245.581696 
	C489.562042,231.168671 475.336853,217.061676 460.976868,202.645050 
	C444.376495,185.870728 427.730774,169.580658 411.526001,152.863129 
	C404.103027,145.205261 394.996704,144.159439 386.122711,146.738754 
	C368.310638,151.916046 362.079956,171.319992 371.960541,186.103729 
	C376.464417,192.842651 383.174103,198.107361 389.013763,204.353119 
	C403.796631,219.232208 418.448975,233.798935 433.285095,248.669403 
	C439.024078,254.396423 444.579315,259.819702 451.059601,266.146027 
	C445.400787,271.321198 440.139038,276.133209 434.570190,281.072083 
	C426.160461,289.427246 418.057861,297.655548 409.644348,306.016632 
	C402.207275,313.389465 395.081146,320.629517 387.645294,328.005920 
	C383.355682,332.121765 378.792786,335.684082 375.561523,340.199341 
	C372.392487,344.627686 370.577972,350.025360 368.094818,355.398193 
	C368.013336,358.285797 367.853088,360.783417 368.025604,363.257843 
	C368.717041,373.173096 374.650238,379.892151 383.122925,383.296387 
	C391.814941,386.788757 401.433014,386.982239 409.067841,380.236542 
	C418.111145,372.246460 426.470306,363.482056 435.431091,354.923218 
	C443.533203,346.877533 451.330170,338.961914 459.432068,330.916687 
	C467.195587,323.206573 474.654205,315.626038 482.418213,307.915405 
	C490.759674,299.522308 498.795776,291.259277 506.981506,282.676270 
	C509.087402,280.237518 511.043701,278.118774 513.000000,276.000000 
	C513.000000,354.965546 513.000000,433.931061 513.000000,512.896606 
	C512.867859,512.931091 512.735779,512.995728 512.603638,512.995728 
	C342.178040,513.000000 171.752441,513.000000 1.000000,513.000000 
	C1.000000,431.311615 1.000000,349.622772 1.267018,267.141907 
	C3.676667,269.272583 5.819297,272.195312 8.086389,275.425354 
	C20.126448,287.525970 32.042046,299.319275 44.082932,311.419952 
	C55.102684,322.500580 65.997147,333.273865 77.024353,344.357391 
	C85.036293,352.542603 92.968719,360.365204 100.779495,368.307434 
	C108.428482,376.085144 117.482452,378.777405 127.995247,375.923096 
	C143.535309,371.703796 149.555893,354.869598 144.901093,341.638428 
	C143.577530,338.952881 142.573227,336.246643 140.728333,334.364197 
	C131.961563,325.418884 122.965866,316.697937 113.921799,307.590851 
	C101.545311,295.154785 89.298698,283.024994 76.922691,270.588715 
	C72.347504,265.936737 67.901703,261.591217 62.395187,256.208923 
	C68.063416,251.100281 73.090469,246.569504 78.423599,241.911530 
	C86.523888,233.870483 94.318100,225.956650 102.419235,217.916046 
	C113.188507,207.207504 123.650864,196.625717 134.420395,185.916214 
	C142.497421,178.800552 148.021729,171.063644 146.118057,159.617188 
	C144.548691,150.180786 140.017380,143.037384 131.446762,139.308197 
	C121.525337,134.991272 111.335236,135.782166 103.325188,143.386642 
	C89.482452,156.528473 76.328117,170.395447 62.576523,184.081146 
	C51.139740,195.456345 40.011410,206.708633 28.575443,218.085083 
	C21.162342,225.437073 14.056874,232.664871 6.624397,240.038376 
	C5.473344,241.667114 4.781524,243.248047 3.780476,244.600037 
	C3.069725,245.560013 1.941754,246.211060 1.000000,247.000000 
M245.689926,345.770874 
	C249.497940,337.193878 253.305954,328.616882 257.757019,319.700928 
	C265.114838,303.133057 272.472656,286.565186 280.150360,269.321625 
	C281.296021,266.839294 282.477448,264.372742 283.580872,261.871796 
	C287.678467,252.584778 291.750427,243.286438 296.144745,233.326675 
	C301.134583,222.230621 306.124420,211.134567 311.761505,199.707458 
	C313.169769,196.491348 314.623230,193.294113 315.975769,190.054749 
	C318.059113,185.065018 320.073303,180.046417 322.758789,174.719330 
	C325.782440,167.810150 328.806122,160.900986 332.141541,153.324921 
	C336.079926,144.915146 340.124542,136.553009 343.923645,128.080780 
	C347.044952,121.120087 349.874695,114.028656 353.139954,106.332016 
	C357.625580,98.193581 361.642456,90.150436 359.118103,80.183403 
	C356.351715,69.260910 348.414612,61.449482 336.274292,60.194870 
	C325.642700,59.096180 316.506287,63.524700 311.037079,73.668854 
	C305.631317,83.695351 301.592590,94.458893 296.288239,105.240059 
	C293.725281,111.110291 291.158813,116.978996 288.600159,122.851112 
	C284.382324,132.531052 280.169495,142.213211 275.293793,152.216278 
	C271.918091,159.810562 268.542389,167.404861 264.844086,175.676041 
	C263.568237,178.419159 262.209778,181.127426 261.034637,183.913025 
	C258.929993,188.901962 256.935730,193.937439 254.249847,199.270493 
	C249.222656,210.511459 244.195465,221.752426 238.838287,233.660156 
	C233.519470,245.759628 228.200668,257.859100 222.242203,270.280975 
	C217.154160,281.590027 212.018799,292.878143 207.000305,304.217987 
	C204.859634,309.055115 202.962952,314.000214 200.306168,319.222870 
	C196.855347,327.113190 193.404541,335.003510 189.299210,343.234375 
	C187.527435,347.175629 185.678940,351.084625 184.004822,355.066925 
	C182.214478,359.325745 180.588516,363.653687 178.257492,368.277466 
	C173.465668,379.171265 168.673843,390.065094 163.245895,401.293060 
	C161.162704,405.859711 158.880722,410.348907 157.062332,415.018677 
	C155.727493,418.446625 154.415466,422.061859 154.110428,425.679382 
	C153.145386,437.124359 160.712952,448.486450 170.442932,452.065552 
	C183.511993,456.872925 196.804291,451.507324 201.902985,441.591278 
	C208.533859,428.695343 214.095993,415.249878 220.749954,401.699158 
	C225.545517,390.813477 230.341080,379.927795 235.780121,368.691101 
	C236.405624,367.052948 236.992081,365.398590 237.663589,363.779510 
	C240.109894,357.881226 242.584641,351.994781 245.689926,345.770874 
z"/>
<path fill="#9E82F6" opacity="1.000000" stroke="none" 
	d="
M513.000000,275.531464 
	C511.043701,278.118774 509.087402,280.237518 506.571289,282.651794 
	C503.050964,282.631500 500.091675,282.055908 497.129791,282.042450 
	C478.652191,281.958313 460.173920,282.036133 441.696320,281.953217 
	C439.421875,281.943024 437.150238,281.296753 434.877319,280.945221 
	C440.139038,276.133209 445.400787,271.321198 451.059601,266.146027 
	C444.579315,259.819702 439.024078,254.396423 433.731140,248.490234 
	C436.442261,247.671570 438.889923,247.055069 441.340149,247.044647 
	C460.338501,246.963837 479.337494,247.031479 498.335846,246.951370 
	C500.240021,246.943344 502.141388,246.258484 504.044037,245.887726 
	C506.849548,249.137299 509.655060,252.386856 512.730286,255.318207 
	C513.000000,261.687653 513.000000,268.375275 513.000000,275.531464 
z"/>
<path fill="#A183F6" opacity="1.000000" stroke="none" 
	d="
M7.961928,275.118073 
	C5.819297,272.195312 3.676667,269.272583 1.267018,266.674927 
	C1.000000,260.645599 1.000000,254.291214 1.000000,247.468414 
	C1.941754,246.211060 3.069725,245.560013 3.780476,244.600037 
	C4.781524,243.248047 5.473344,241.667114 6.887902,240.328018 
	C9.859511,240.981201 12.238016,241.918304 14.622107,241.932739 
	C35.786686,242.060883 56.952248,242.025696 78.117523,242.038712 
	C73.090469,246.569504 68.063416,251.100281 62.395187,256.208923 
	C67.901703,261.591217 72.347504,265.936737 76.598145,270.855865 
	C74.435524,271.619659 72.468430,271.970520 70.500542,271.975037 
	C52.007278,272.017273 33.512383,271.889008 15.022384,272.138306 
	C12.655937,272.170227 10.314795,274.078857 7.961928,275.118073 
z"/>
<path fill="#B28EF8" opacity="1.000000" stroke="none" 
	d="
M388.883270,204.040741 
	C383.174103,198.107361 376.464417,192.842651 371.960541,186.103729 
	C362.079956,171.319992 368.310638,151.916046 386.122711,146.738754 
	C394.996704,144.159439 404.103027,145.205261 411.526001,152.863129 
	C427.730774,169.580658 444.376495,185.870728 460.586456,202.812988 
	C458.211487,203.527008 456.092712,203.962891 453.972687,203.969131 
	C432.276337,204.033020 410.579773,204.027130 388.883270,204.040741 
z"/>
<path fill="#A787F7" opacity="1.000000" stroke="none" 
	d="
M389.013763,204.353119 
	C410.579773,204.027130 432.276337,204.033020 453.972687,203.969131 
	C456.092712,203.962891 458.211487,203.527008 460.721252,203.122620 
	C475.336853,217.061676 489.562042,231.168671 503.915649,245.581696 
	C502.141388,246.258484 500.240021,246.943344 498.335846,246.951370 
	C479.337494,247.031479 460.338501,246.963837 441.340149,247.044647 
	C438.889923,247.055069 436.442261,247.671570 433.547363,248.186493 
	C418.448975,233.798935 403.796631,219.232208 389.013763,204.353119 
z"/>
<path fill="#997EF5" opacity="1.000000" stroke="none" 
	d="
M279.830505,269.997314 
	C272.472656,286.565186 265.114838,303.133057 257.006958,319.880646 
	C253.961609,320.372345 251.667908,320.940002 249.370758,320.954285 
	C235.729736,321.039276 222.086395,321.100647 208.447754,320.901367 
	C205.941071,320.864746 203.452362,319.596161 200.955383,318.896240 
	C202.962952,314.000214 204.859634,309.055115 207.000305,304.217987 
	C212.018799,292.878143 217.154160,281.590027 223.038162,270.129944 
	C242.499588,269.985046 261.165039,269.991180 279.830505,269.997314 
z"/>
<path fill="#B590F9" opacity="1.000000" stroke="none" 
	d="
M62.884979,183.958206 
	C76.328117,170.395447 89.482452,156.528473 103.325188,143.386642 
	C111.335236,135.782166 121.525337,134.991272 131.446762,139.308197 
	C140.017380,143.037384 144.548691,150.180786 146.118057,159.617188 
	C148.021729,171.063644 142.497421,178.800552 133.944611,185.905548 
	C112.753632,186.015030 92.344849,186.090851 71.938362,185.909027 
	C68.915016,185.882095 65.902504,184.638763 62.884979,183.958206 
z"/>
<path fill="#997EF5" opacity="1.000000" stroke="none" 
	d="
M8.086390,275.425354 
	C10.314795,274.078857 12.655937,272.170227 15.022384,272.138306 
	C33.512383,271.889008 52.007278,272.017273 70.500542,271.975037 
	C72.468430,271.970520 74.435524,271.619659 76.727531,271.162323 
	C89.298698,283.024994 101.545311,295.154785 113.597054,307.857666 
	C111.446899,308.620453 109.491982,308.970581 107.536278,308.975067 
	C89.156754,309.017120 70.776199,308.910858 52.398418,309.094513 
	C49.578384,309.122711 46.770920,310.408447 43.957642,311.112579 
	C32.042046,299.319275 20.126448,287.525970 8.086390,275.425354 
z"/>
<path fill="#C096FA" opacity="1.000000" stroke="none" 
	d="
M352.833679,106.995186 
	C349.874695,114.028656 347.044952,121.120087 343.923645,128.080780 
	C340.124542,136.553009 336.079926,144.915146 331.586517,153.577423 
	C328.734802,153.552505 326.439270,153.046997 324.141205,153.034943 
	C309.982574,152.960602 295.823120,153.038864 281.664703,152.948639 
	C279.759155,152.936493 277.857849,152.262146 275.954559,151.894440 
	C280.169495,142.213211 284.382324,132.531052 288.600159,122.851112 
	C291.158813,116.978996 293.725281,111.110291 296.945343,105.336395 
	C300.400909,105.621826 303.196838,105.916420 305.998230,105.982491 
	C321.609314,106.350647 337.221710,106.663460 352.833679,106.995186 
z"/>
<path fill="#7A6CF1" opacity="1.000000" stroke="none" 
	d="
M220.118118,402.040955 
	C214.095993,415.249878 208.533859,428.695343 201.902985,441.591278 
	C196.804291,451.507324 183.511993,456.872925 170.442932,452.065552 
	C160.712952,448.486450 153.145386,437.124359 154.110428,425.679382 
	C154.415466,422.061859 155.727493,418.446625 157.062332,415.018677 
	C158.880722,410.348907 161.162704,405.859711 164.040131,401.136017 
	C180.474854,400.985992 196.115692,400.942780 211.755554,401.046722 
	C214.545151,401.065247 217.330704,401.693970 220.118118,402.040955 
z"/>
<path fill="#9079F4" opacity="1.000000" stroke="none" 
	d="
M44.082932,311.419952 
	C46.770920,310.408447 49.578384,309.122711 52.398418,309.094513 
	C70.776199,308.910858 89.156754,309.017120 107.536278,308.975067 
	C109.491982,308.970581 111.446899,308.620453 113.726913,308.163879 
	C122.965866,316.697937 131.961563,325.418884 140.728333,334.364197 
	C142.573227,336.246643 143.577530,338.952881 144.443115,341.639099 
	C124.053246,341.999146 104.188843,341.928162 84.326363,342.090546 
	C81.842934,342.110840 79.369598,343.364807 76.891602,344.047150 
	C65.997147,333.273865 55.102684,322.500580 44.082932,311.419952 
z"/>
<path fill="#AD8AF8" opacity="1.000000" stroke="none" 
	d="
M62.576523,184.081146 
	C65.902504,184.638763 68.915016,185.882095 71.938362,185.909027 
	C92.344849,186.090851 112.753632,186.015030 133.637451,186.033264 
	C123.650864,196.625717 113.188507,207.207504 101.991180,217.885315 
	C98.143723,217.654236 95.027931,217.016876 91.919296,217.050064 
	C70.906380,217.274384 49.894974,217.640610 28.883080,217.960907 
	C40.011410,206.708633 51.139740,195.456345 62.576523,184.081146 
z"/>
<path fill="#C79BFB" opacity="1.000000" stroke="none" 
	d="
M352.986816,106.663605 
	C337.221710,106.663460 321.609314,106.350647 305.998230,105.982491 
	C303.196838,105.916420 300.400909,105.621826 297.278290,105.165924 
	C301.592590,94.458893 305.631317,83.695351 311.037079,73.668854 
	C316.506287,63.524700 325.642700,59.096180 336.274292,60.194870 
	C348.414612,61.449482 356.351715,69.260910 359.118103,80.183403 
	C361.642456,90.150436 357.625580,98.193581 352.986816,106.663605 
z"/>
<path fill="#A183F6" opacity="1.000000" stroke="none" 
	d="
M279.990417,269.659485 
	C261.165039,269.991180 242.499588,269.985046 223.358002,269.968750 
	C228.200668,257.859100 233.519470,245.759628 239.461212,233.328156 
	C246.733734,232.997025 253.385635,232.886719 260.032471,233.023117 
	C271.967255,233.268021 283.898956,233.661148 295.831970,233.992340 
	C291.750427,243.286438 287.678467,252.584778 283.580872,261.871796 
	C282.477448,264.372742 281.296021,266.839294 279.990417,269.659485 
z"/>
<path fill="#997EF5" opacity="1.000000" stroke="none" 
	d="
M434.570190,281.072083 
	C437.150238,281.296753 439.421875,281.943024 441.696320,281.953217 
	C460.173920,282.036133 478.652191,281.958313 497.129791,282.042450 
	C500.091675,282.055908 503.050964,282.631500 506.421692,282.971741 
	C498.795776,291.259277 490.759674,299.522308 481.942505,307.903534 
	C459.241669,308.014435 437.321594,308.057098 415.402802,307.908234 
	C413.582458,307.895874 411.770874,306.589172 409.955261,305.883850 
	C418.057861,297.655548 426.160461,289.427246 434.570190,281.072083 
z"/>
<path fill="#AD8AF8" opacity="1.000000" stroke="none" 
	d="
M295.988342,233.659515 
	C283.898956,233.661148 271.967255,233.268021 260.032471,233.023117 
	C253.385635,232.886719 246.733734,232.997025 239.626190,232.994781 
	C244.195465,221.752426 249.222656,210.511459 254.962326,199.280396 
	C257.789948,199.526474 259.904236,199.958633 262.020325,199.967651 
	C278.384766,200.037369 294.749542,200.025269 311.114258,200.038513 
	C306.124420,211.134567 301.134583,222.230621 295.988342,233.659515 
z"/>
<path fill="#8471F2" opacity="1.000000" stroke="none" 
	d="
M220.434036,401.870056 
	C217.330704,401.693970 214.545151,401.065247 211.755554,401.046722 
	C196.115692,400.942780 180.474854,400.985992 164.358185,400.968933 
	C168.673843,390.065094 173.465668,379.171265 178.964127,368.283386 
	C181.786774,368.526184 183.901932,368.959625 186.018936,368.968781 
	C202.391312,369.039429 218.764038,369.028076 235.136658,369.042114 
	C230.341080,379.927795 225.545517,390.813477 220.434036,401.870056 
z"/>
<path fill="#A787F7" opacity="1.000000" stroke="none" 
	d="
M28.575445,218.085083 
	C49.894974,217.640610 70.906380,217.274384 91.919296,217.050064 
	C95.027931,217.016876 98.143723,217.654236 101.684258,218.012085 
	C94.318100,225.956650 86.523888,233.870483 78.423599,241.911499 
	C56.952248,242.025696 35.786686,242.060883 14.622107,241.932739 
	C12.238016,241.918304 9.859511,240.981201 7.214912,240.182312 
	C14.056874,232.664871 21.162342,225.437073 28.575445,218.085083 
z"/>
<path fill="#8D77F4" opacity="1.000000" stroke="none" 
	d="
M459.127136,331.046265 
	C451.330170,338.961914 443.533203,346.877533 434.954712,354.909851 
	C412.171814,355.016876 390.170380,355.007233 368.169006,354.997589 
	C370.577972,350.025360 372.392487,344.627686 375.561523,340.199341 
	C378.792786,335.684082 383.355682,332.121765 387.688904,328.415436 
	C389.789062,329.458984 391.530853,330.886475 393.283508,330.899872 
	C415.230469,331.067688 437.179016,331.030731 459.127136,331.046265 
z"/>
<path fill="#8975F3" opacity="1.000000" stroke="none" 
	d="
M77.024353,344.357391 
	C79.369598,343.364807 81.842934,342.110840 84.326363,342.090546 
	C104.188843,341.928162 124.053246,341.999146 144.375031,341.997986 
	C149.555893,354.869598 143.535309,371.703796 127.995247,375.923096 
	C117.482452,378.777405 108.428482,376.085144 100.779495,368.307434 
	C92.968719,360.365204 85.036293,352.542603 77.024353,344.357391 
z"/>
<path fill="#9079F4" opacity="1.000000" stroke="none" 
	d="
M459.432068,330.916687 
	C437.179016,331.030731 415.230469,331.067688 393.283508,330.899872 
	C391.530853,330.886475 389.789062,329.458984 387.998596,328.279114 
	C395.081146,320.629517 402.207275,313.389465 409.644318,306.016602 
	C411.770874,306.589172 413.582458,307.895874 415.402802,307.908234 
	C437.321594,308.057098 459.241669,308.014435 481.637115,308.033630 
	C474.654205,315.626038 467.195587,323.206573 459.432068,330.916687 
z"/>
<path fill="#8975F3" opacity="1.000000" stroke="none" 
	d="
M368.094788,355.398193 
	C390.170380,355.007233 412.171814,355.016876 434.649597,355.039886 
	C426.470306,363.482056 418.111145,372.246460 409.067841,380.236542 
	C401.433014,386.982239 391.814941,386.788757 383.122925,383.296387 
	C374.650238,379.892151 368.717041,373.173096 368.025604,363.257843 
	C367.853088,360.783417 368.013336,358.285797 368.094788,355.398193 
z"/>
<path fill="#B28EF8" opacity="1.000000" stroke="none" 
	d="
M311.437866,199.872986 
	C294.749542,200.025269 278.384766,200.037369 262.020325,199.967651 
	C259.904236,199.958633 257.789948,199.526474 255.285065,199.121887 
	C256.935730,193.937439 258.929993,188.901962 261.034637,183.913025 
	C262.209778,181.127426 263.568237,178.419159 265.463440,175.337799 
	C284.760834,175.013077 303.438843,175.026581 322.116852,175.040070 
	C320.073303,180.046417 318.059113,185.065018 315.975769,190.054749 
	C314.623230,193.294113 313.169769,196.491348 311.437866,199.872986 
z"/>
<path fill="#9079F4" opacity="1.000000" stroke="none" 
	d="
M200.630768,319.059570 
	C203.452362,319.596161 205.941071,320.864746 208.447754,320.901367 
	C222.086395,321.100647 235.729736,321.039276 249.370758,320.954285 
	C251.667908,320.940002 253.961609,320.372345 256.685425,320.050140 
	C253.305954,328.616882 249.497940,337.193878 245.045166,345.670105 
	C242.604202,345.379547 240.808502,345.030823 239.011734,345.025116 
	C224.720413,344.979797 210.427841,345.083954 196.138611,344.905640 
	C194.068924,344.879852 192.014954,343.595673 189.953705,342.893799 
	C193.404541,335.003510 196.855347,327.113190 200.630768,319.059570 
z"/>
<path fill="#8975F3" opacity="1.000000" stroke="none" 
	d="
M189.626465,343.064087 
	C192.014954,343.595673 194.068924,344.879852 196.138611,344.905640 
	C210.427841,345.083954 224.720413,344.979797 239.011734,345.025116 
	C240.808502,345.030823 242.604202,345.379547 244.724518,345.836578 
	C242.584641,351.994781 240.109894,357.881226 237.663589,363.779510 
	C236.992081,365.398590 236.405624,367.052948 235.458389,368.866608 
	C218.764038,369.028076 202.391312,369.039429 186.018936,368.968781 
	C183.901932,368.959625 181.786774,368.526184 179.280792,368.120361 
	C180.588516,363.653687 182.214478,359.325745 184.004822,355.066925 
	C185.678940,351.084625 187.527435,347.175629 189.626465,343.064087 
z"/>
<path fill="#B590F9" opacity="1.000000" stroke="none" 
	d="
M322.437805,174.879700 
	C303.438843,175.026581 284.760834,175.013077 265.624756,174.999359 
	C268.542389,167.404861 271.918091,159.810562 275.624176,152.055359 
	C277.857849,152.262146 279.759155,152.936493 281.664703,152.948639 
	C295.823120,153.038864 309.982574,152.960602 324.141205,153.034943 
	C326.439270,153.046997 328.734802,153.552505 331.430634,153.910858 
	C328.806122,160.900986 325.782440,167.810150 322.437805,174.879700 
z"/>
</svg>